<svg xmlns="http://www.w3.org/2000/svg" viewBox="0 0 512 512" fill="none">
  <defs>
    <linearGradient id="logo-bg" x1="68" y1="40" x2="444" y2="472" gradientUnits="userSpaceOnUse">
      <stop stop-color="#0f172a"/>
      <stop offset="1" stop-color="#172033"/>
    </linearGradient>
    <radialGradient id="logo-glow" cx="0" cy="0" r="1" gradientUnits="userSpaceOnUse" gradientTransform="translate(256 256) rotate(90) scale(194)">
      <stop stop-color="#ffffff" stop-opacity=".18"/>
      <stop offset=".55" stop-color="#ffffff" stop-opacity=".04"/>
      <stop offset="1" stop-color="#ffffff" stop-opacity="0"/>
    </radialGradient>
    <filter id="pill-shadow" x="42" y="42" width="428" height="428" filterUnits="userSpaceOnUse" color-interpolation-filters="sRGB">
      <feDropShadow dx="0" dy="14" stdDeviation="16" flood-color="#020617" flood-opacity=".28"/>
    </filter>
  </defs>

  <rect x="24" y="24" width="464" height="464" rx="112" fill="url(#logo-bg)"/>
  <rect x="24" y="24" width="464" height="464" rx="112" fill="url(#logo-glow)"/>
  <rect x="24" y="24" width="464" height="464" rx="112" stroke="#ffffff" stroke-opacity=".1" stroke-width="4"/>

  <g filter="url(#pill-shadow)">
    <g transform="translate(176 176) rotate(-30)">
      <rect x="-96" y="-42" width="192" height="84" rx="42" fill="#f9df6d"/>
      <rect x="-96" y="-42" width="192" height="84" rx="42" stroke="#111827" stroke-opacity=".14" stroke-width="4"/>
      <path d="M0 -28V28" stroke="#ffffff" stroke-opacity=".45" stroke-width="6" stroke-linecap="round"/>
    </g>
    <g transform="translate(336 176) rotate(30)">
      <rect x="-96" y="-42" width="192" height="84" rx="42" fill="#a0c35a"/>
      <rect x="-96" y="-42" width="192" height="84" rx="42" stroke="#111827" stroke-opacity=".14" stroke-width="4"/>
      <path d="M0 -28V28" stroke="#ffffff" stroke-opacity=".45" stroke-width="6" stroke-linecap="round"/>
    </g>
    <g transform="translate(176 336) rotate(30)">
      <rect x="-96" y="-42" width="192" height="84" rx="42" fill="#b0c4ef"/>
      <rect x="-96" y="-42" width="192" height="84" rx="42" stroke="#111827" stroke-opacity=".14" stroke-width="4"/>
      <path d="M0 -28V28" stroke="#ffffff" stroke-opacity=".45" stroke-width="6" stroke-linecap="round"/>
    </g>
    <g transform="translate(336 336) rotate(-30)">
      <rect x="-96" y="-42" width="192" height="84" rx="42" fill="#ba81c5"/>
      <rect x="-96" y="-42" width="192" height="84" rx="42" stroke="#111827" stroke-opacity=".14" stroke-width="4"/>
      <path d="M0 -28V28" stroke="#ffffff" stroke-opacity=".45" stroke-width="6" stroke-linecap="round"/>
    </g>
  </g>
</svg>
